<!--
  - Copyright (c) 2024 Kyren223
  - Licensed under the CC BY-NC-SA 4.0 license. See https://creativecommons.org/licenses/by-nc-sa/4.0/ for details.
  -->

<svg width="303" height="100" viewBox="0 0 303 100" fill="none" xmlns="http://www.w3.org/2000/svg">
    <path d="M108.341 74.1862V17.5049C108.341 16.9623 108.613 16.6775 109.155 16.6504H115.015C115.557 16.6504 115.828 16.9352 115.828 17.5049V42.9362H122.095C127.086 42.9362 130.965 40.8474 133.732 36.6699L146.265 17.5049C146.644 16.9623 147.051 16.6775 147.485 16.6504H154.321C155.216 16.6504 155.447 16.9895 155.013 17.6676L142.074 37.4837C138.845 42.4208 135.509 45.2013 132.064 45.8252C136.051 46.4491 139.673 49.2296 142.928 54.1667L155.827 73.9827C155.962 74.1998 156.03 74.4303 156.03 74.6745C156.057 74.8915 155.773 75 155.176 75H148.34C147.906 75 147.485 74.7287 147.078 74.1862L134.587 54.9805C131.82 50.803 127.927 48.7278 122.909 48.7549H115.828V74.1862C115.828 74.7287 115.557 75 115.015 75H109.155C108.613 75 108.341 74.7287 108.341 74.1862ZM160.343 74.1862L182.438 19.1732C183.116 17.5184 184.364 16.6775 186.182 16.6504H188.704C190.549 16.6504 191.797 17.4913 192.448 19.1732L214.543 74.1862C214.624 74.349 214.665 74.471 214.665 74.5524C214.665 74.8508 214.393 75 213.851 75H207.869C207.327 75 206.906 74.7287 206.608 74.1862L200.789 59.9854H174.097L168.278 74.1862C168.007 74.7287 167.586 75 167.017 75H161.035C160.52 75 160.262 74.8508 160.262 74.5524C160.235 74.471 160.262 74.349 160.343 74.1862ZM176.213 54.1667H198.714L187.443 26.2533L176.213 54.1667ZM225.448 74.1862V17.5049C225.448 16.9623 225.719 16.6775 226.261 16.6504H250.431C257.376 16.6504 262.72 18.3187 266.463 21.6553C270.234 24.9919 272.119 29.8611 272.119 36.263C272.119 42.6378 270.234 47.4935 266.463 50.8301C262.72 54.1667 257.376 55.835 250.431 55.835H232.935V74.1862C232.935 74.7287 232.663 75 232.121 75H226.261C225.719 75 225.448 74.7287 225.448 74.1862ZM232.935 50.0163H250.431C254.826 50.0163 258.285 48.877 260.807 46.5983C263.33 44.3197 264.591 40.8746 264.591 36.263C264.591 31.6515 263.33 28.2064 260.807 25.9277C258.285 23.6491 254.826 22.5098 250.431 22.5098H232.935V50.0163ZM284.611 74.1862V17.5049C284.611 16.9352 284.882 16.6504 285.425 16.6504H291.284C291.827 16.6504 292.098 16.9352 292.098 17.5049V74.1862C292.098 74.7287 291.827 75 291.284 75H285.425C284.882 75 284.611 74.7287 284.611 74.1862Z"
          fill="url(#paint0_linear_23_432)"/>
    <path d="M109.508 86.6364H110.909L114.205 94.6856H114.318L117.614 86.6364H119.015V96.3334H117.917V88.966H117.822L114.792 96.3334H113.731L110.701 88.966H110.606V96.3334H109.508V86.6364ZM121.218 96.3334V89.0606H122.336V96.3334H121.218ZM121.786 87.8485C121.568 87.8485 121.381 87.7743 121.223 87.626C121.068 87.4776 120.991 87.2993 120.991 87.091C120.991 86.8826 121.068 86.7043 121.223 86.5559C121.381 86.4076 121.568 86.3334 121.786 86.3334C122.004 86.3334 122.19 86.4076 122.345 86.5559C122.503 86.7043 122.582 86.8826 122.582 87.091C122.582 87.2993 122.503 87.4776 122.345 87.626C122.19 87.7743 122.004 87.8485 121.786 87.8485ZM125.5 91.9584V96.3334H124.382V89.0606H125.462V90.197H125.556C125.727 89.8277 125.986 89.531 126.333 89.3069C126.68 89.0796 127.128 88.966 127.678 88.966C128.17 88.966 128.601 89.067 128.97 89.269C129.34 89.4678 129.627 89.7709 129.832 90.1781C130.037 90.5821 130.14 91.0935 130.14 91.7122V96.3334H129.022V91.7879C129.022 91.2166 128.874 90.7715 128.577 90.4527C128.281 90.1307 127.873 89.9697 127.356 89.9697C126.999 89.9697 126.68 90.0471 126.399 90.2017C126.121 90.3564 125.902 90.5821 125.741 90.8788C125.58 91.1755 125.5 91.5354 125.5 91.9584ZM135.231 96.4849C134.53 96.4849 133.926 96.3302 133.417 96.0209C132.912 95.7084 132.523 95.2728 132.248 94.7141C131.976 94.1522 131.841 93.4988 131.841 92.7538C131.841 92.0089 131.976 91.3523 132.248 90.7841C132.523 90.2128 132.904 89.7677 133.394 89.4489C133.886 89.1269 134.461 88.966 135.117 88.966C135.496 88.966 135.87 89.0291 136.239 89.1553C136.609 89.2816 136.945 89.4868 137.248 89.7709C137.551 90.0518 137.792 90.4243 137.972 90.8883C138.152 91.3523 138.242 91.9237 138.242 92.6023V93.0758H132.636V92.1099H137.106C137.106 91.6995 137.024 91.3334 136.86 91.0114C136.699 90.6894 136.468 90.4353 136.168 90.2491C135.872 90.0629 135.521 89.9697 135.117 89.9697C134.672 89.9697 134.287 90.0802 133.962 90.3012C133.64 90.519 133.392 90.8031 133.219 91.1534C133.045 91.5038 132.958 91.8795 132.958 92.2803V92.9243C132.958 93.4735 133.053 93.9391 133.242 94.3211C133.435 94.6999 133.702 94.9887 134.042 95.1875C134.383 95.3832 134.779 95.4811 135.231 95.4811C135.524 95.4811 135.79 95.4401 136.026 95.358C136.266 95.2728 136.473 95.1465 136.647 94.9792C136.82 94.8088 136.954 94.5973 137.049 94.3447L138.129 94.6478C138.015 95.0139 137.824 95.3359 137.556 95.6137C137.287 95.8883 136.956 96.1029 136.561 96.2576C136.167 96.4091 135.723 96.4849 135.231 96.4849ZM142.897 96.4849C142.215 96.4849 141.628 96.3239 141.135 96.0019C140.643 95.68 140.264 95.2365 139.999 94.6714C139.734 94.1064 139.601 93.4609 139.601 92.7349C139.601 91.9963 139.737 91.3444 140.008 90.7794C140.283 90.2112 140.665 89.7677 141.154 89.4489C141.647 89.1269 142.221 88.966 142.878 88.966C143.389 88.966 143.85 89.0606 144.26 89.25C144.671 89.4394 145.007 89.7046 145.269 90.0455C145.531 90.3864 145.693 90.7841 145.756 91.2387H144.639C144.554 90.9072 144.364 90.6137 144.071 90.358C143.78 90.0992 143.389 89.9697 142.897 89.9697C142.461 89.9697 142.079 90.0834 141.751 90.3106C141.426 90.5348 141.172 90.852 140.988 91.2624C140.809 91.6695 140.719 92.1478 140.719 92.697C140.719 93.2589 140.807 93.7481 140.984 94.1648C141.164 94.5815 141.416 94.905 141.741 95.1355C142.07 95.3659 142.455 95.4811 142.897 95.4811C143.187 95.4811 143.451 95.4306 143.687 95.3296C143.924 95.2286 144.124 95.0834 144.289 94.894C144.453 94.7046 144.57 94.4773 144.639 94.2122H145.756C145.693 94.6415 145.537 95.0281 145.288 95.3722C145.041 95.7131 144.715 95.9846 144.308 96.1866C143.904 96.3855 143.433 96.4849 142.897 96.4849ZM147.39 96.3334V89.0606H148.469V90.1591H148.545C148.678 89.7993 148.918 89.5073 149.265 89.2832C149.612 89.0591 150.004 88.947 150.439 88.947C150.521 88.947 150.624 88.9486 150.747 88.9517C150.87 88.9549 150.963 88.9596 151.026 88.966V90.1023C150.988 90.0928 150.902 90.0786 150.766 90.0597C150.633 90.0376 150.493 90.0266 150.344 90.0266C149.991 90.0266 149.675 90.1007 149.398 90.2491C149.123 90.3943 148.905 90.5963 148.744 90.8552C148.586 91.1108 148.507 91.4028 148.507 91.7311V96.3334H147.39ZM154.491 96.5038C154.03 96.5038 153.612 96.417 153.236 96.2434C152.861 96.0666 152.562 95.8125 152.341 95.4811C152.12 95.1465 152.01 94.7425 152.01 94.269C152.01 93.8523 152.092 93.5146 152.256 93.2557C152.42 92.9937 152.64 92.7886 152.914 92.6402C153.189 92.4918 153.492 92.3814 153.823 92.3088C154.158 92.233 154.494 92.173 154.832 92.1288C155.274 92.072 155.632 92.0294 155.907 92.001C156.185 91.9694 156.387 91.9173 156.513 91.8447C156.642 91.7721 156.707 91.6459 156.707 91.4659V91.4281C156.707 90.9609 156.579 90.5979 156.323 90.3391C156.071 90.0802 155.687 89.9508 155.173 89.9508C154.639 89.9508 154.221 90.0676 153.918 90.3012C153.615 90.5348 153.402 90.7841 153.279 91.0493L152.218 90.6705C152.408 90.2286 152.66 89.8845 152.976 89.6383C153.295 89.3889 153.642 89.2153 154.018 89.1175C154.396 89.0165 154.769 88.966 155.135 88.966C155.369 88.966 155.637 88.9944 155.94 89.0512C156.246 89.1048 156.541 89.2169 156.825 89.3874C157.113 89.5578 157.351 89.8151 157.54 90.1591C157.73 90.5032 157.824 90.9641 157.824 91.5417V96.3334H156.707V95.3485H156.65C156.574 95.5064 156.448 95.6752 156.271 95.8552C156.095 96.0351 155.859 96.1882 155.566 96.3144C155.272 96.4407 154.914 96.5038 154.491 96.5038ZM154.661 95.5C155.103 95.5 155.476 95.4132 155.779 95.2396C156.085 95.066 156.316 94.8419 156.47 94.5673C156.628 94.2927 156.707 94.0038 156.707 93.7008V92.6781C156.66 92.7349 156.555 92.787 156.394 92.8343C156.237 92.8785 156.054 92.918 155.845 92.9527C155.64 92.9843 155.44 93.0127 155.244 93.0379C155.051 93.06 154.895 93.079 154.775 93.0947C154.485 93.1326 154.213 93.1942 153.961 93.2794C153.711 93.3615 153.509 93.4862 153.355 93.6534C153.203 93.8176 153.127 94.0417 153.127 94.3258C153.127 94.7141 153.271 95.0076 153.558 95.2065C153.849 95.4022 154.216 95.5 154.661 95.5ZM163.103 89.0606V90.0076H159.182V89.0606H163.103ZM160.356 96.3334V88.0569C160.356 87.6402 160.454 87.293 160.65 87.0152C160.846 86.7374 161.1 86.5291 161.412 86.3902C161.725 86.2513 162.055 86.1819 162.402 86.1819C162.676 86.1819 162.901 86.204 163.074 86.2481C163.248 86.2923 163.377 86.3334 163.462 86.3713L163.14 87.3372C163.084 87.3182 163.005 87.2945 162.904 87.2661C162.806 87.2377 162.676 87.2235 162.515 87.2235C162.146 87.2235 161.879 87.3166 161.715 87.5029C161.554 87.6891 161.474 87.9622 161.474 88.322V96.3334H160.356ZM167.831 89.0606V90.0076H164.063V89.0606H167.831ZM165.161 87.3182H166.278V94.25C166.278 94.5657 166.324 94.8024 166.416 94.9603C166.51 95.1149 166.63 95.2191 166.776 95.2728C166.924 95.3233 167.08 95.3485 167.244 95.3485C167.367 95.3485 167.468 95.3422 167.547 95.3296C167.626 95.3138 167.689 95.3012 167.737 95.2917L167.964 96.2955C167.888 96.3239 167.783 96.3523 167.647 96.3807C167.511 96.4123 167.339 96.4281 167.131 96.4281C166.815 96.4281 166.506 96.3602 166.203 96.2245C165.903 96.0887 165.653 95.882 165.455 95.6042C165.259 95.3264 165.161 94.9761 165.161 94.5531V87.3182ZM173.414 96.3334V86.6364H176.69C177.451 86.6364 178.073 86.7737 178.556 87.0483C179.042 87.3198 179.402 87.6875 179.635 88.1516C179.869 88.6156 179.986 89.1332 179.986 89.7046C179.986 90.2759 179.869 90.7952 179.635 91.2624C179.405 91.7295 179.048 92.102 178.565 92.3798C178.082 92.6544 177.464 92.7917 176.709 92.7917H174.361V91.75H176.671C177.192 91.75 177.611 91.6601 177.926 91.4802C178.242 91.3002 178.471 91.0572 178.613 90.751C178.758 90.4416 178.831 90.0928 178.831 89.7046C178.831 89.3163 178.758 88.9691 178.613 88.6629C178.471 88.3567 178.24 88.1168 177.921 87.9432C177.603 87.7665 177.18 87.6781 176.653 87.6781H174.588V96.3334H173.414ZM182.843 86.6364V96.3334H181.726V86.6364H182.843ZM189.473 93.3599V89.0606H190.591V96.3334H189.473V95.1023H189.398C189.227 95.4716 188.962 95.7857 188.602 96.0445C188.242 96.3002 187.788 96.4281 187.238 96.4281C186.784 96.4281 186.38 96.3286 186.026 96.1298C185.673 95.9278 185.395 95.6247 185.193 95.2207C184.991 94.8135 184.89 94.3005 184.89 93.6819V89.0606H186.007V93.6061C186.007 94.1364 186.156 94.5594 186.452 94.875C186.752 95.1907 187.134 95.3485 187.598 95.3485C187.876 95.3485 188.159 95.2775 188.446 95.1355C188.736 94.9934 188.979 94.7756 189.175 94.482C189.374 94.1885 189.473 93.8144 189.473 93.3599ZM195.573 99.2122C195.033 99.2122 194.569 99.1427 194.181 99.0038C193.793 98.8681 193.469 98.6882 193.21 98.4641C192.955 98.2431 192.751 98.0064 192.599 97.7538L193.49 97.1288C193.591 97.2614 193.718 97.4129 193.873 97.5834C194.028 97.757 194.239 97.9069 194.508 98.0332C194.779 98.1626 195.134 98.2273 195.573 98.2273C196.16 98.2273 196.645 98.0853 197.027 97.8012C197.409 97.5171 197.599 97.072 197.599 96.4659V94.9887H197.505C197.423 95.1213 197.306 95.2854 197.154 95.4811C197.006 95.6737 196.791 95.8457 196.51 95.9972C196.233 96.1456 195.857 96.2197 195.384 96.2197C194.796 96.2197 194.269 96.0808 193.802 95.8031C193.338 95.5253 192.97 95.1213 192.699 94.5909C192.431 94.0606 192.296 93.4167 192.296 92.6591C192.296 91.9142 192.427 91.2655 192.689 90.7131C192.951 90.1576 193.316 89.7283 193.783 89.4252C194.25 89.119 194.79 88.966 195.403 88.966C195.876 88.966 196.252 89.0449 196.529 89.2027C196.81 89.3574 197.025 89.5341 197.173 89.733C197.325 89.9287 197.442 90.0897 197.524 90.2159H197.637V89.0606H198.717V96.5417C198.717 97.1667 198.575 97.6749 198.291 98.0663C198.01 98.4609 197.631 98.7497 197.154 98.9328C196.681 99.119 196.154 99.2122 195.573 99.2122ZM195.535 95.2159C195.983 95.2159 196.362 95.1134 196.671 94.9082C196.981 94.703 197.216 94.4079 197.377 94.0228C197.538 93.6377 197.618 93.1768 197.618 92.6402C197.618 92.1162 197.539 91.6538 197.382 91.2529C197.224 90.852 196.99 90.5379 196.681 90.3106C196.372 90.0834 195.99 89.9697 195.535 89.9697C195.062 89.9697 194.667 90.0897 194.351 90.3296C194.039 90.5695 193.804 90.8915 193.646 91.2955C193.491 91.6995 193.414 92.1478 193.414 92.6402C193.414 93.1452 193.493 93.5919 193.651 93.9802C193.812 94.3653 194.048 94.6683 194.361 94.8892C194.676 95.107 195.068 95.2159 195.535 95.2159ZM200.762 96.3334V89.0606H201.88V96.3334H200.762ZM201.331 87.8485C201.113 87.8485 200.925 87.7743 200.767 87.626C200.612 87.4776 200.535 87.2993 200.535 87.091C200.535 86.8826 200.612 86.7043 200.767 86.5559C200.925 86.4076 201.113 86.3334 201.331 86.3334C201.548 86.3334 201.735 86.4076 201.889 86.5559C202.047 86.7043 202.126 86.8826 202.126 87.091C202.126 87.2993 202.047 87.4776 201.889 87.626C201.735 87.7743 201.548 87.8485 201.331 87.8485ZM205.044 91.9584V96.3334H203.926V89.0606H205.006V90.197H205.101C205.271 89.8277 205.53 89.531 205.877 89.3069C206.224 89.0796 206.673 88.966 207.222 88.966C207.714 88.966 208.145 89.067 208.514 89.269C208.884 89.4678 209.171 89.7709 209.376 90.1781C209.581 90.5821 209.684 91.0935 209.684 91.7122V96.3334H208.567V91.7879C208.567 91.2166 208.418 90.7715 208.121 90.4527C207.825 90.1307 207.418 89.9697 206.9 89.9697C206.543 89.9697 206.224 90.0471 205.943 90.2017C205.666 90.3564 205.446 90.5821 205.285 90.8788C205.124 91.1755 205.044 91.5354 205.044 91.9584ZM216.877 90.6894L215.874 90.9735C215.81 90.8062 215.717 90.6437 215.594 90.4858C215.474 90.3249 215.31 90.1923 215.102 90.0881C214.894 89.9839 214.627 89.9319 214.302 89.9319C213.857 89.9319 213.486 90.0344 213.189 90.2396C212.895 90.4416 212.749 90.6989 212.749 91.0114C212.749 91.2892 212.85 91.5086 213.052 91.6695C213.254 91.8305 213.569 91.9647 213.999 92.072L215.078 92.3372C215.728 92.495 216.213 92.7365 216.532 93.0616C216.851 93.3836 217.01 93.7987 217.01 94.3069C217.01 94.7235 216.89 95.096 216.65 95.4243C216.413 95.7526 216.082 96.0114 215.656 96.2008C215.23 96.3902 214.734 96.4849 214.169 96.4849C213.427 96.4849 212.813 96.3239 212.327 96.0019C211.841 95.68 211.533 95.2096 211.404 94.5909L212.465 94.3258C212.566 94.7172 212.757 95.0108 213.037 95.2065C213.322 95.4022 213.692 95.5 214.15 95.5C214.671 95.5 215.084 95.3896 215.391 95.1686C215.7 94.9445 215.855 94.6762 215.855 94.3637C215.855 94.1112 215.766 93.8997 215.59 93.7292C215.413 93.5556 215.141 93.4262 214.775 93.3409L213.563 93.0569C212.897 92.899 212.408 92.6544 212.095 92.323C211.786 91.9884 211.631 91.5701 211.631 91.0682C211.631 90.6579 211.746 90.2949 211.977 89.9792C212.21 89.6636 212.528 89.4158 212.929 89.2358C213.333 89.0559 213.79 88.966 214.302 88.966C215.021 88.966 215.586 89.1238 215.997 89.4394C216.41 89.7551 216.704 90.1718 216.877 90.6894ZM222.594 96.3334V86.6364H228.408V87.6781H223.768V90.9546H227.972V91.9963H223.768V96.3334H222.594ZM230.189 96.3334V89.0606H231.269V90.1591H231.345C231.477 89.7993 231.717 89.5073 232.064 89.2832C232.412 89.0591 232.803 88.947 233.239 88.947C233.321 88.947 233.423 88.9486 233.546 88.9517C233.67 88.9549 233.763 88.9596 233.826 88.966V90.1023C233.788 90.0928 233.701 90.0786 233.565 90.0597C233.433 90.0376 233.292 90.0266 233.144 90.0266C232.79 90.0266 232.475 90.1007 232.197 90.2491C231.922 90.3943 231.705 90.5963 231.544 90.8552C231.386 91.1108 231.307 91.4028 231.307 91.7311V96.3334H230.189ZM237.291 96.5038C236.83 96.5038 236.411 96.417 236.036 96.2434C235.66 96.0666 235.362 95.8125 235.141 95.4811C234.92 95.1465 234.809 94.7425 234.809 94.269C234.809 93.8523 234.892 93.5146 235.056 93.2557C235.22 92.9937 235.439 92.7886 235.714 92.6402C235.988 92.4918 236.291 92.3814 236.623 92.3088C236.958 92.233 237.294 92.173 237.631 92.1288C238.073 92.072 238.432 92.0294 238.706 92.001C238.984 91.9694 239.186 91.9173 239.312 91.8447C239.442 91.7721 239.506 91.6459 239.506 91.4659V91.4281C239.506 90.9609 239.379 90.5979 239.123 90.3391C238.87 90.0802 238.487 89.9508 237.972 89.9508C237.439 89.9508 237.021 90.0676 236.718 90.3012C236.415 90.5348 236.202 90.7841 236.078 91.0493L235.018 90.6705C235.207 90.2286 235.46 89.8845 235.775 89.6383C236.094 89.3889 236.441 89.2153 236.817 89.1175C237.196 89.0165 237.568 88.966 237.934 88.966C238.168 88.966 238.436 88.9944 238.739 89.0512C239.046 89.1048 239.341 89.2169 239.625 89.3874C239.912 89.5578 240.15 89.8151 240.34 90.1591C240.529 90.5032 240.624 90.9641 240.624 91.5417V96.3334H239.506V95.3485H239.45C239.374 95.5064 239.248 95.6752 239.071 95.8552C238.894 96.0351 238.659 96.1882 238.365 96.3144C238.072 96.4407 237.713 96.5038 237.291 96.5038ZM237.461 95.5C237.903 95.5 238.275 95.4132 238.578 95.2396C238.885 95.066 239.115 94.8419 239.27 94.5673C239.428 94.2927 239.506 94.0038 239.506 93.7008V92.6781C239.459 92.7349 239.355 92.787 239.194 92.8343C239.036 92.8785 238.853 92.918 238.645 92.9527C238.44 92.9843 238.239 93.0127 238.043 93.0379C237.851 93.06 237.695 93.079 237.575 93.0947C237.284 93.1326 237.013 93.1942 236.76 93.2794C236.511 93.3615 236.309 93.4862 236.154 93.6534C236.003 93.8176 235.927 94.0417 235.927 94.3258C235.927 94.7141 236.071 95.0076 236.358 95.2065C236.648 95.4022 237.016 95.5 237.461 95.5ZM242.663 96.3334V89.0606H243.743V90.197H243.838C243.989 89.8088 244.234 89.5073 244.572 89.2927C244.909 89.0749 245.315 88.966 245.788 88.966C246.268 88.966 246.667 89.0749 246.986 89.2927C247.308 89.5073 247.559 89.8088 247.739 90.197H247.815C248.001 89.8214 248.28 89.5231 248.653 89.3021C249.025 89.078 249.472 88.966 249.993 88.966C250.643 88.966 251.175 89.1695 251.589 89.5767C252.002 89.9808 252.209 90.6105 252.209 91.4659V96.3334H251.091V91.4659C251.091 90.9293 250.945 90.5458 250.651 90.3154C250.358 90.085 250.012 89.9697 249.614 89.9697C249.103 89.9697 248.707 90.1244 248.426 90.4338C248.145 90.7399 248.004 91.1282 248.004 91.5985V96.3334H246.868V91.3523C246.868 90.9388 246.734 90.6058 246.465 90.3533C246.197 90.0976 245.852 89.9697 245.429 89.9697C245.138 89.9697 244.867 90.0471 244.614 90.2017C244.365 90.3564 244.163 90.5711 244.008 90.8457C243.857 91.1171 243.781 91.4312 243.781 91.7879V96.3334H242.663ZM257.301 96.4849C256.6 96.4849 255.996 96.3302 255.488 96.0209C254.983 95.7084 254.593 95.2728 254.318 94.7141C254.047 94.1522 253.911 93.4988 253.911 92.7538C253.911 92.0089 254.047 91.3523 254.318 90.7841C254.593 90.2128 254.975 89.7677 255.464 89.4489C255.956 89.1269 256.531 88.966 257.188 88.966C257.566 88.966 257.94 89.0291 258.31 89.1553C258.679 89.2816 259.015 89.4868 259.318 89.7709C259.621 90.0518 259.863 90.4243 260.043 90.8883C260.223 91.3523 260.313 91.9237 260.313 92.6023V93.0758H254.706V92.1099H259.176C259.176 91.6995 259.094 91.3334 258.93 91.0114C258.769 90.6894 258.539 90.4353 258.239 90.2491C257.942 90.0629 257.592 89.9697 257.188 89.9697C256.742 89.9697 256.357 90.0802 256.032 90.3012C255.71 90.519 255.462 90.8031 255.289 91.1534C255.115 91.5038 255.028 91.8795 255.028 92.2803V92.9243C255.028 93.4735 255.123 93.9391 255.313 94.3211C255.505 94.6999 255.772 94.9887 256.113 95.1875C256.454 95.3832 256.85 95.4811 257.301 95.4811C257.595 95.4811 257.86 95.4401 258.097 95.358C258.337 95.2728 258.543 95.1465 258.717 94.9792C258.891 94.8088 259.025 94.5973 259.119 94.3447L260.199 94.6478C260.085 95.0139 259.894 95.3359 259.626 95.6137C259.358 95.8883 259.026 96.1029 258.632 96.2576C258.237 96.4091 257.794 96.4849 257.301 96.4849ZM263.66 96.3334L261.444 89.0606H262.618L264.19 94.6288H264.266L265.819 89.0606H267.012L268.546 94.6099H268.622L270.194 89.0606H271.368L269.153 96.3334H268.054L266.463 90.7463H266.349L264.759 96.3334H263.66ZM275.553 96.4849C274.896 96.4849 274.32 96.3286 273.825 96.0161C273.332 95.7036 272.947 95.2665 272.669 94.7046C272.395 94.1427 272.257 93.4862 272.257 92.7349C272.257 91.9773 272.395 91.316 272.669 90.751C272.947 90.186 273.332 89.7472 273.825 89.4347C274.32 89.1222 274.896 88.966 275.553 88.966C276.209 88.966 276.784 89.1222 277.276 89.4347C277.772 89.7472 278.157 90.186 278.432 90.751C278.709 91.316 278.848 91.9773 278.848 92.7349C278.848 93.4862 278.709 94.1427 278.432 94.7046C278.157 95.2665 277.772 95.7036 277.276 96.0161C276.784 96.3286 276.209 96.4849 275.553 96.4849ZM275.553 95.4811C276.052 95.4811 276.462 95.3533 276.784 95.0976C277.106 94.8419 277.344 94.5057 277.499 94.0891C277.654 93.6724 277.731 93.221 277.731 92.7349C277.731 92.2488 277.654 91.7958 277.499 91.376C277.344 90.9562 277.106 90.6168 276.784 90.358C276.462 90.0992 276.052 89.9697 275.553 89.9697C275.054 89.9697 274.644 90.0992 274.322 90.358C274 90.6168 273.761 90.9562 273.607 91.376C273.452 91.7958 273.375 92.2488 273.375 92.7349C273.375 93.221 273.452 93.6724 273.607 94.0891C273.761 94.5057 274 94.8419 274.322 95.0976C274.644 95.3533 275.054 95.4811 275.553 95.4811ZM280.554 96.3334V89.0606H281.634V90.1591H281.709C281.842 89.7993 282.082 89.5073 282.429 89.2832C282.776 89.0591 283.168 88.947 283.603 88.947C283.685 88.947 283.788 88.9486 283.911 88.9517C284.034 88.9549 284.127 88.9596 284.19 88.966V90.1023C284.152 90.0928 284.066 90.0786 283.93 90.0597C283.797 90.0376 283.657 90.0266 283.509 90.0266C283.155 90.0266 282.839 90.1007 282.562 90.2491C282.287 90.3943 282.069 90.5963 281.908 90.8552C281.75 91.1108 281.671 91.4028 281.671 91.7311V96.3334H280.554ZM286.557 93.6819L286.538 92.2993H286.765L289.947 89.0606H291.329L287.939 92.4887H287.844L286.557 93.6819ZM285.515 96.3334V86.6364H286.632V96.3334H285.515ZM290.136 96.3334L287.295 92.7349L288.091 91.9584L291.557 96.3334H290.136Z"
          fill="url(#paint1_linear_23_432)"/>
    <rect x="108.333" y="80.5555" width="183.333" height="2.77778" fill="url(#paint2_linear_23_432)"/>
    <rect width="100" height="100" rx="20" fill="url(#paint3_linear_23_432)"/>
    <g filter="url(#filter0_d_23_432)">
        <path d="M18 29C18 26.2386 20.2386 24 23 24H76.21C78.9714 24 81.21 26.2386 81.21 29V31.4357H18V29Z"
              fill="url(#paint4_linear_23_432)"/>
        <path d="M18 33.6536H81.21V69.55C81.21 72.3114 78.9714 74.55 76.21 74.55H23C20.2386 74.55 18 72.3114 18 69.55V33.6536Z"
              fill="url(#paint5_linear_23_432)"/>
        <path d="M78.72 27.759C78.72 28.7856 77.8872 29.6179 76.86 29.6179C75.8328 29.6179 75 28.7856 75 27.759C75 26.7323 75.8328 25.9 76.86 25.9C77.8872 25.9 78.72 26.7323 78.72 27.759Z"
              fill="#493F7F"/>
        <path d="M42.1685 63.3965L32.8729 54.455L42.1685 44.8072" stroke="#393162" stroke-width="3"/>
        <path d="M56.1119 63.3965L65.4075 54.455L56.1119 44.8072" stroke="#3E366C" stroke-width="3"/>
        <line y1="-1.5" x2="24.1661" y2="-1.5" transform="matrix(0.152072 -0.988369 0.988374 0.152042 48.6754 66.1849)"
              stroke="#3B3367" stroke-width="3"/>
    </g>
    <defs>
        <filter id="filter0_d_23_432" x="18" y="24" width="69.21" height="56.55" filterUnits="userSpaceOnUse"
                color-interpolation-filters="sRGB">
            <feFlood flood-opacity="0" result="BackgroundImageFix"/>
            <feColorMatrix in="SourceAlpha" type="matrix" values="0 0 0 0 0 0 0 0 0 0 0 0 0 0 0 0 0 0 127 0"
                           result="hardAlpha"/>
            <feOffset dx="3" dy="3"/>
            <feGaussianBlur stdDeviation="1.5"/>
            <feComposite in2="hardAlpha" operator="out"/>
            <feColorMatrix type="matrix" values="0 0 0 0 0 0 0 0 0 0 0 0 0 0 0 0 0 0 0.25 0"/>
            <feBlend mode="normal" in2="BackgroundImageFix" result="effect1_dropShadow_23_432"/>
            <feBlend mode="normal" in="SourceGraphic" in2="effect1_dropShadow_23_432" result="shape"/>
        </filter>
        <linearGradient id="paint0_linear_23_432" x1="100" y1="48.6111" x2="302.778" y2="48.6111"
                        gradientUnits="userSpaceOnUse">
            <stop stop-color="#4568DC"/>
            <stop offset="0.9999" stop-color="#AF6AB3"/>
        </linearGradient>
        <linearGradient id="paint1_linear_23_432" x1="108.333" y1="91.6667" x2="294.444" y2="91.6667"
                        gradientUnits="userSpaceOnUse">
            <stop stop-color="#4568DC"/>
            <stop offset="0.9999" stop-color="#AF6AB3"/>
        </linearGradient>
        <linearGradient id="paint2_linear_23_432" x1="108.333" y1="81.9444" x2="291.667" y2="81.9444"
                        gradientUnits="userSpaceOnUse">
            <stop stop-color="#4568DC"/>
            <stop offset="0.9999" stop-color="#AF6AB3"/>
        </linearGradient>
        <linearGradient id="paint3_linear_23_432" x1="100" y1="5.96046e-06" x2="-5.96047e-06" y2="100"
                        gradientUnits="userSpaceOnUse">
            <stop stop-color="#584D9A"/>
            <stop offset="1" stop-color="#1F1A34"/>
        </linearGradient>
        <linearGradient id="paint4_linear_23_432" x1="18" y1="27.7179" x2="81.21" y2="27.7179"
                        gradientUnits="userSpaceOnUse">
            <stop stop-color="#4568DC"/>
            <stop offset="0.9999" stop-color="#AF6AB3"/>
        </linearGradient>
        <linearGradient id="paint5_linear_23_432" x1="18" y1="54.1018" x2="81.21" y2="54.1018"
                        gradientUnits="userSpaceOnUse">
            <stop stop-color="#4568DC"/>
            <stop offset="0.9999" stop-color="#AF6AB3"/>
        </linearGradient>
    </defs>
</svg>
