<!--
  - Copyright (c) 2024 Kyren223
  - Licensed under the AGPLv3. See LICENSE or https://www.gnu.org/licenses/agpl-3.0 for details.
  -->

<svg width="310" height="100" viewBox="0 0 310 100" fill="none" xmlns="http://www.w3.org/2000/svg">
    <g clip-path="url(#clip0_29_39)">
        <rect width="310" height="100" rx="20" fill="url(#paint0_linear_29_39)"/>
        <g filter="url(#filter0_d_29_39)">
            <path d="M18 29C18 26.2386 20.2386 24 23 24H76.21C78.9714 24 81.21 26.2386 81.21 29V31.4357H18V29Z"
                  fill="url(#paint1_linear_29_39)"/>
            <path d="M18 33.6536H81.21V69.55C81.21 72.3114 78.9714 74.55 76.21 74.55H23C20.2386 74.55 18 72.3114 18 69.55V33.6536Z"
                  fill="url(#paint2_linear_29_39)"/>
            <path d="M78.72 27.759C78.72 28.7856 77.8872 29.6179 76.86 29.6179C75.8328 29.6179 75 28.7856 75 27.759C75 26.7323 75.8328 25.9 76.86 25.9C77.8872 25.9 78.72 26.7323 78.72 27.759Z"
                  fill="#493F7F"/>
            <path d="M42.1685 63.3965L32.8729 54.455L42.1685 44.8072" stroke="#393162" stroke-width="3"/>
            <path d="M56.1119 63.3965L65.4075 54.455L56.1119 44.8072" stroke="#3E366C" stroke-width="3"/>
            <line y1="-1.5" x2="24.1661" y2="-1.5"
                  transform="matrix(0.152072 -0.988369 0.988374 0.152042 48.6754 66.1849)" stroke="#3B3367"
                  stroke-width="3"/>
        </g>
        <g filter="url(#filter1_d_29_39)">
            <path d="M108.341 69.1862V12.5049C108.341 11.9623 108.613 11.6775 109.155 11.6504H115.015C115.557 11.6504 115.828 11.9352 115.828 12.5049V37.9362H122.095C127.086 37.9362 130.965 35.8474 133.732 31.6699L146.265 12.5049C146.644 11.9623 147.051 11.6775 147.485 11.6504H154.321C155.216 11.6504 155.447 11.9895 155.013 12.6676L142.074 32.4837C138.845 37.4208 135.509 40.2013 132.064 40.8252C136.051 41.4491 139.673 44.2296 142.928 49.1667L155.827 68.9827C155.962 69.1998 156.03 69.4303 156.03 69.6745C156.057 69.8915 155.773 70 155.176 70H148.34C147.906 70 147.485 69.7287 147.078 69.1862L134.587 49.9805C131.82 45.803 127.927 43.7278 122.909 43.7549H115.828V69.1862C115.828 69.7287 115.557 70 115.015 70H109.155C108.613 70 108.341 69.7287 108.341 69.1862ZM160.343 69.1862L182.438 14.1732C183.116 12.5184 184.364 11.6775 186.182 11.6504H188.704C190.549 11.6504 191.797 12.4913 192.448 14.1732L214.543 69.1862C214.624 69.349 214.665 69.471 214.665 69.5524C214.665 69.8508 214.393 70 213.851 70H207.869C207.327 70 206.906 69.7287 206.608 69.1862L200.789 54.9854H174.097L168.278 69.1862C168.007 69.7287 167.586 70 167.017 70H161.035C160.52 70 160.262 69.8508 160.262 69.5524C160.235 69.471 160.262 69.349 160.343 69.1862ZM176.213 49.1667H198.714L187.443 21.2533L176.213 49.1667ZM225.448 69.1862V12.5049C225.448 11.9623 225.719 11.6775 226.261 11.6504H250.431C257.376 11.6504 262.72 13.3187 266.463 16.6553C270.234 19.9919 272.119 24.8611 272.119 31.263C272.119 37.6378 270.234 42.4935 266.463 45.8301C262.72 49.1667 257.376 50.835 250.431 50.835H232.935V69.1862C232.935 69.7287 232.663 70 232.121 70H226.261C225.719 70 225.448 69.7287 225.448 69.1862ZM232.935 45.0163H250.431C254.826 45.0163 258.285 43.877 260.807 41.5983C263.33 39.3197 264.591 35.8746 264.591 31.263C264.591 26.6515 263.33 23.2064 260.807 20.9277C258.285 18.6491 254.826 17.5098 250.431 17.5098H232.935V45.0163ZM284.611 69.1862V12.5049C284.611 11.9352 284.882 11.6504 285.425 11.6504H291.284C291.827 11.6504 292.098 11.9352 292.098 12.5049V69.1862C292.098 69.7287 291.827 70 291.284 70H285.425C284.882 70 284.611 69.7287 284.611 69.1862Z"
                  fill="url(#paint3_linear_29_39)"/>
            <path d="M109.508 81.6364H110.909L114.205 89.6856H114.318L117.614 81.6364H119.015V91.3334H117.917V83.966H117.822L114.792 91.3334H113.731L110.701 83.966H110.606V91.3334H109.508V81.6364ZM121.218 91.3334V84.0606H122.336V91.3334H121.218ZM121.786 82.8485C121.568 82.8485 121.381 82.7743 121.223 82.626C121.068 82.4776 120.991 82.2993 120.991 82.091C120.991 81.8826 121.068 81.7043 121.223 81.5559C121.381 81.4076 121.568 81.3334 121.786 81.3334C122.004 81.3334 122.19 81.4076 122.345 81.5559C122.503 81.7043 122.582 81.8826 122.582 82.091C122.582 82.2993 122.503 82.4776 122.345 82.626C122.19 82.7743 122.004 82.8485 121.786 82.8485ZM125.5 86.9584V91.3334H124.382V84.0606H125.462V85.197H125.556C125.727 84.8277 125.986 84.531 126.333 84.3069C126.68 84.0796 127.128 83.966 127.678 83.966C128.17 83.966 128.601 84.067 128.97 84.269C129.34 84.4678 129.627 84.7709 129.832 85.1781C130.037 85.5821 130.14 86.0935 130.14 86.7122V91.3334H129.022V86.7879C129.022 86.2166 128.874 85.7715 128.577 85.4527C128.281 85.1307 127.873 84.9697 127.356 84.9697C126.999 84.9697 126.68 85.0471 126.399 85.2017C126.121 85.3564 125.902 85.5821 125.741 85.8788C125.58 86.1755 125.5 86.5354 125.5 86.9584ZM135.231 91.4849C134.53 91.4849 133.926 91.3302 133.417 91.0209C132.912 90.7084 132.523 90.2728 132.248 89.7141C131.976 89.1522 131.841 88.4988 131.841 87.7538C131.841 87.0089 131.976 86.3523 132.248 85.7841C132.523 85.2128 132.904 84.7677 133.394 84.4489C133.886 84.1269 134.461 83.966 135.117 83.966C135.496 83.966 135.87 84.0291 136.239 84.1553C136.609 84.2816 136.945 84.4868 137.248 84.7709C137.551 85.0518 137.792 85.4243 137.972 85.8883C138.152 86.3523 138.242 86.9237 138.242 87.6023V88.0758H132.636V87.1099H137.106C137.106 86.6995 137.024 86.3334 136.86 86.0114C136.699 85.6894 136.468 85.4353 136.168 85.2491C135.872 85.0629 135.521 84.9697 135.117 84.9697C134.672 84.9697 134.287 85.0802 133.962 85.3012C133.64 85.519 133.392 85.8031 133.219 86.1534C133.045 86.5038 132.958 86.8795 132.958 87.2803V87.9243C132.958 88.4735 133.053 88.9391 133.242 89.3211C133.435 89.6999 133.702 89.9887 134.042 90.1875C134.383 90.3832 134.779 90.4811 135.231 90.4811C135.524 90.4811 135.79 90.4401 136.026 90.358C136.266 90.2728 136.473 90.1465 136.647 89.9792C136.82 89.8088 136.954 89.5973 137.049 89.3447L138.129 89.6478C138.015 90.0139 137.824 90.3359 137.556 90.6137C137.287 90.8883 136.956 91.1029 136.561 91.2576C136.167 91.4091 135.723 91.4849 135.231 91.4849ZM142.897 91.4849C142.215 91.4849 141.628 91.3239 141.135 91.0019C140.643 90.68 140.264 90.2365 139.999 89.6714C139.734 89.1064 139.601 88.4609 139.601 87.7349C139.601 86.9963 139.737 86.3444 140.008 85.7794C140.283 85.2112 140.665 84.7677 141.154 84.4489C141.647 84.1269 142.221 83.966 142.878 83.966C143.389 83.966 143.85 84.0606 144.26 84.25C144.671 84.4394 145.007 84.7046 145.269 85.0455C145.531 85.3864 145.693 85.7841 145.756 86.2387H144.639C144.554 85.9072 144.364 85.6137 144.071 85.358C143.78 85.0992 143.389 84.9697 142.897 84.9697C142.461 84.9697 142.079 85.0834 141.751 85.3106C141.426 85.5348 141.172 85.852 140.988 86.2624C140.809 86.6695 140.719 87.1478 140.719 87.697C140.719 88.2589 140.807 88.7481 140.984 89.1648C141.164 89.5815 141.416 89.905 141.741 90.1355C142.07 90.3659 142.455 90.4811 142.897 90.4811C143.187 90.4811 143.451 90.4306 143.687 90.3296C143.924 90.2286 144.124 90.0834 144.289 89.894C144.453 89.7046 144.57 89.4773 144.639 89.2122H145.756C145.693 89.6415 145.537 90.0281 145.288 90.3722C145.041 90.7131 144.715 90.9846 144.308 91.1866C143.904 91.3855 143.433 91.4849 142.897 91.4849ZM147.39 91.3334V84.0606H148.469V85.1591H148.545C148.678 84.7993 148.918 84.5073 149.265 84.2832C149.612 84.0591 150.004 83.947 150.439 83.947C150.521 83.947 150.624 83.9486 150.747 83.9517C150.87 83.9549 150.963 83.9596 151.026 83.966V85.1023C150.988 85.0928 150.902 85.0786 150.766 85.0597C150.633 85.0376 150.493 85.0266 150.344 85.0266C149.991 85.0266 149.675 85.1007 149.398 85.2491C149.123 85.3943 148.905 85.5963 148.744 85.8552C148.586 86.1108 148.507 86.4028 148.507 86.7311V91.3334H147.39ZM154.491 91.5038C154.03 91.5038 153.612 91.417 153.236 91.2434C152.861 91.0666 152.562 90.8125 152.341 90.4811C152.12 90.1465 152.01 89.7425 152.01 89.269C152.01 88.8523 152.092 88.5146 152.256 88.2557C152.42 87.9937 152.64 87.7886 152.914 87.6402C153.189 87.4918 153.492 87.3814 153.823 87.3088C154.158 87.233 154.494 87.173 154.832 87.1288C155.274 87.072 155.632 87.0294 155.907 87.001C156.185 86.9694 156.387 86.9173 156.513 86.8447C156.642 86.7721 156.707 86.6459 156.707 86.4659V86.4281C156.707 85.9609 156.579 85.5979 156.323 85.3391C156.071 85.0802 155.687 84.9508 155.173 84.9508C154.639 84.9508 154.221 85.0676 153.918 85.3012C153.615 85.5348 153.402 85.7841 153.279 86.0493L152.218 85.6705C152.408 85.2286 152.66 84.8845 152.976 84.6383C153.295 84.3889 153.642 84.2153 154.018 84.1175C154.396 84.0165 154.769 83.966 155.135 83.966C155.369 83.966 155.637 83.9944 155.94 84.0512C156.246 84.1048 156.541 84.2169 156.825 84.3874C157.113 84.5578 157.351 84.8151 157.54 85.1591C157.73 85.5032 157.824 85.9641 157.824 86.5417V91.3334H156.707V90.3485H156.65C156.574 90.5064 156.448 90.6752 156.271 90.8552C156.095 91.0351 155.859 91.1882 155.566 91.3144C155.272 91.4407 154.914 91.5038 154.491 91.5038ZM154.661 90.5C155.103 90.5 155.476 90.4132 155.779 90.2396C156.085 90.066 156.316 89.8419 156.47 89.5673C156.628 89.2927 156.707 89.0038 156.707 88.7008V87.6781C156.66 87.7349 156.555 87.787 156.394 87.8343C156.237 87.8785 156.054 87.918 155.845 87.9527C155.64 87.9843 155.44 88.0127 155.244 88.0379C155.051 88.06 154.895 88.079 154.775 88.0947C154.485 88.1326 154.213 88.1942 153.961 88.2794C153.711 88.3615 153.509 88.4862 153.355 88.6534C153.203 88.8176 153.127 89.0417 153.127 89.3258C153.127 89.7141 153.271 90.0076 153.558 90.2065C153.849 90.4022 154.216 90.5 154.661 90.5ZM163.103 84.0606V85.0076H159.182V84.0606H163.103ZM160.356 91.3334V83.0569C160.356 82.6402 160.454 82.293 160.65 82.0152C160.846 81.7374 161.1 81.5291 161.412 81.3902C161.725 81.2513 162.055 81.1819 162.402 81.1819C162.676 81.1819 162.901 81.204 163.074 81.2481C163.248 81.2923 163.377 81.3334 163.462 81.3713L163.14 82.3372C163.084 82.3182 163.005 82.2945 162.904 82.2661C162.806 82.2377 162.676 82.2235 162.515 82.2235C162.146 82.2235 161.879 82.3166 161.715 82.5029C161.554 82.6891 161.474 82.9622 161.474 83.322V91.3334H160.356ZM167.831 84.0606V85.0076H164.063V84.0606H167.831ZM165.161 82.3182H166.278V89.25C166.278 89.5657 166.324 89.8024 166.416 89.9603C166.51 90.1149 166.63 90.2191 166.776 90.2728C166.924 90.3233 167.08 90.3485 167.244 90.3485C167.367 90.3485 167.468 90.3422 167.547 90.3296C167.626 90.3138 167.689 90.3012 167.737 90.2917L167.964 91.2955C167.888 91.3239 167.783 91.3523 167.647 91.3807C167.511 91.4123 167.339 91.4281 167.131 91.4281C166.815 91.4281 166.506 91.3602 166.203 91.2245C165.903 91.0887 165.653 90.882 165.455 90.6042C165.259 90.3264 165.161 89.9761 165.161 89.5531V82.3182ZM173.414 91.3334V81.6364H176.69C177.451 81.6364 178.073 81.7737 178.556 82.0483C179.042 82.3198 179.402 82.6875 179.635 83.1516C179.869 83.6156 179.986 84.1332 179.986 84.7046C179.986 85.2759 179.869 85.7952 179.635 86.2624C179.405 86.7295 179.048 87.102 178.565 87.3798C178.082 87.6544 177.464 87.7917 176.709 87.7917H174.361V86.75H176.671C177.192 86.75 177.611 86.6601 177.926 86.4802C178.242 86.3002 178.471 86.0572 178.613 85.751C178.758 85.4416 178.831 85.0928 178.831 84.7046C178.831 84.3163 178.758 83.9691 178.613 83.6629C178.471 83.3567 178.24 83.1168 177.921 82.9432C177.603 82.7665 177.18 82.6781 176.653 82.6781H174.588V91.3334H173.414ZM182.843 81.6364V91.3334H181.726V81.6364H182.843ZM189.473 88.3599V84.0606H190.591V91.3334H189.473V90.1023H189.398C189.227 90.4716 188.962 90.7857 188.602 91.0445C188.242 91.3002 187.788 91.4281 187.238 91.4281C186.784 91.4281 186.38 91.3286 186.026 91.1298C185.673 90.9278 185.395 90.6247 185.193 90.2207C184.991 89.8135 184.89 89.3005 184.89 88.6819V84.0606H186.007V88.6061C186.007 89.1364 186.156 89.5594 186.452 89.875C186.752 90.1907 187.134 90.3485 187.598 90.3485C187.876 90.3485 188.159 90.2775 188.446 90.1355C188.736 89.9934 188.979 89.7756 189.175 89.482C189.374 89.1885 189.473 88.8144 189.473 88.3599ZM195.573 94.2122C195.033 94.2122 194.569 94.1427 194.181 94.0038C193.793 93.8681 193.469 93.6882 193.21 93.4641C192.955 93.2431 192.751 93.0064 192.599 92.7538L193.49 92.1288C193.591 92.2614 193.718 92.4129 193.873 92.5834C194.028 92.757 194.239 92.9069 194.508 93.0332C194.779 93.1626 195.134 93.2273 195.573 93.2273C196.16 93.2273 196.645 93.0853 197.027 92.8012C197.409 92.5171 197.599 92.072 197.599 91.4659V89.9887H197.505C197.423 90.1213 197.306 90.2854 197.154 90.4811C197.006 90.6737 196.791 90.8457 196.51 90.9972C196.233 91.1456 195.857 91.2197 195.384 91.2197C194.796 91.2197 194.269 91.0808 193.802 90.8031C193.338 90.5253 192.97 90.1213 192.699 89.5909C192.431 89.0606 192.296 88.4167 192.296 87.6591C192.296 86.9142 192.427 86.2655 192.689 85.7131C192.951 85.1576 193.316 84.7283 193.783 84.4252C194.25 84.119 194.79 83.966 195.403 83.966C195.876 83.966 196.252 84.0449 196.529 84.2027C196.81 84.3574 197.025 84.5341 197.173 84.733C197.325 84.9287 197.442 85.0897 197.524 85.2159H197.637V84.0606H198.717V91.5417C198.717 92.1667 198.575 92.6749 198.291 93.0663C198.01 93.4609 197.631 93.7497 197.154 93.9328C196.681 94.119 196.154 94.2122 195.573 94.2122ZM195.535 90.2159C195.983 90.2159 196.362 90.1134 196.671 89.9082C196.981 89.703 197.216 89.4079 197.377 89.0228C197.538 88.6377 197.618 88.1768 197.618 87.6402C197.618 87.1162 197.539 86.6538 197.382 86.2529C197.224 85.852 196.99 85.5379 196.681 85.3106C196.372 85.0834 195.99 84.9697 195.535 84.9697C195.062 84.9697 194.667 85.0897 194.351 85.3296C194.039 85.5695 193.804 85.8915 193.646 86.2955C193.491 86.6995 193.414 87.1478 193.414 87.6402C193.414 88.1452 193.493 88.5919 193.651 88.9802C193.812 89.3653 194.048 89.6683 194.361 89.8892C194.676 90.107 195.068 90.2159 195.535 90.2159ZM200.762 91.3334V84.0606H201.88V91.3334H200.762ZM201.331 82.8485C201.113 82.8485 200.925 82.7743 200.767 82.626C200.612 82.4776 200.535 82.2993 200.535 82.091C200.535 81.8826 200.612 81.7043 200.767 81.5559C200.925 81.4076 201.113 81.3334 201.331 81.3334C201.548 81.3334 201.735 81.4076 201.889 81.5559C202.047 81.7043 202.126 81.8826 202.126 82.091C202.126 82.2993 202.047 82.4776 201.889 82.626C201.735 82.7743 201.548 82.8485 201.331 82.8485ZM205.044 86.9584V91.3334H203.926V84.0606H205.006V85.197H205.101C205.271 84.8277 205.53 84.531 205.877 84.3069C206.224 84.0796 206.673 83.966 207.222 83.966C207.714 83.966 208.145 84.067 208.514 84.269C208.884 84.4678 209.171 84.7709 209.376 85.1781C209.581 85.5821 209.684 86.0935 209.684 86.7122V91.3334H208.567V86.7879C208.567 86.2166 208.418 85.7715 208.121 85.4527C207.825 85.1307 207.418 84.9697 206.9 84.9697C206.543 84.9697 206.224 85.0471 205.943 85.2017C205.666 85.3564 205.446 85.5821 205.285 85.8788C205.124 86.1755 205.044 86.5354 205.044 86.9584ZM216.877 85.6894L215.874 85.9735C215.81 85.8062 215.717 85.6437 215.594 85.4858C215.474 85.3249 215.31 85.1923 215.102 85.0881C214.894 84.9839 214.627 84.9319 214.302 84.9319C213.857 84.9319 213.486 85.0344 213.189 85.2396C212.895 85.4416 212.749 85.6989 212.749 86.0114C212.749 86.2892 212.85 86.5086 213.052 86.6695C213.254 86.8305 213.569 86.9647 213.999 87.072L215.078 87.3372C215.728 87.495 216.213 87.7365 216.532 88.0616C216.851 88.3836 217.01 88.7987 217.01 89.3069C217.01 89.7235 216.89 90.096 216.65 90.4243C216.413 90.7526 216.082 91.0114 215.656 91.2008C215.23 91.3902 214.734 91.4849 214.169 91.4849C213.427 91.4849 212.813 91.3239 212.327 91.0019C211.841 90.68 211.533 90.2096 211.404 89.5909L212.465 89.3258C212.566 89.7172 212.757 90.0108 213.037 90.2065C213.322 90.4022 213.692 90.5 214.15 90.5C214.671 90.5 215.084 90.3896 215.391 90.1686C215.7 89.9445 215.855 89.6762 215.855 89.3637C215.855 89.1112 215.766 88.8997 215.59 88.7292C215.413 88.5556 215.141 88.4262 214.775 88.3409L213.563 88.0569C212.897 87.899 212.408 87.6544 212.095 87.323C211.786 86.9884 211.631 86.5701 211.631 86.0682C211.631 85.6579 211.746 85.2949 211.977 84.9792C212.21 84.6636 212.528 84.4158 212.929 84.2358C213.333 84.0559 213.79 83.966 214.302 83.966C215.021 83.966 215.586 84.1238 215.997 84.4394C216.41 84.7551 216.704 85.1718 216.877 85.6894ZM222.594 91.3334V81.6364H228.408V82.6781H223.768V85.9546H227.972V86.9963H223.768V91.3334H222.594ZM230.189 91.3334V84.0606H231.269V85.1591H231.345C231.477 84.7993 231.717 84.5073 232.064 84.2832C232.412 84.0591 232.803 83.947 233.239 83.947C233.321 83.947 233.423 83.9486 233.546 83.9517C233.67 83.9549 233.763 83.9596 233.826 83.966V85.1023C233.788 85.0928 233.701 85.0786 233.565 85.0597C233.433 85.0376 233.292 85.0266 233.144 85.0266C232.79 85.0266 232.475 85.1007 232.197 85.2491C231.922 85.3943 231.705 85.5963 231.544 85.8552C231.386 86.1108 231.307 86.4028 231.307 86.7311V91.3334H230.189ZM237.291 91.5038C236.83 91.5038 236.411 91.417 236.036 91.2434C235.66 91.0666 235.362 90.8125 235.141 90.4811C234.92 90.1465 234.809 89.7425 234.809 89.269C234.809 88.8523 234.892 88.5146 235.056 88.2557C235.22 87.9937 235.439 87.7886 235.714 87.6402C235.988 87.4918 236.291 87.3814 236.623 87.3088C236.958 87.233 237.294 87.173 237.631 87.1288C238.073 87.072 238.432 87.0294 238.706 87.001C238.984 86.9694 239.186 86.9173 239.312 86.8447C239.442 86.7721 239.506 86.6459 239.506 86.4659V86.4281C239.506 85.9609 239.379 85.5979 239.123 85.3391C238.87 85.0802 238.487 84.9508 237.972 84.9508C237.439 84.9508 237.021 85.0676 236.718 85.3012C236.415 85.5348 236.202 85.7841 236.078 86.0493L235.018 85.6705C235.207 85.2286 235.46 84.8845 235.775 84.6383C236.094 84.3889 236.441 84.2153 236.817 84.1175C237.196 84.0165 237.568 83.966 237.934 83.966C238.168 83.966 238.436 83.9944 238.739 84.0512C239.046 84.1048 239.341 84.2169 239.625 84.3874C239.912 84.5578 240.15 84.8151 240.34 85.1591C240.529 85.5032 240.624 85.9641 240.624 86.5417V91.3334H239.506V90.3485H239.45C239.374 90.5064 239.248 90.6752 239.071 90.8552C238.894 91.0351 238.659 91.1882 238.365 91.3144C238.072 91.4407 237.713 91.5038 237.291 91.5038ZM237.461 90.5C237.903 90.5 238.275 90.4132 238.578 90.2396C238.885 90.066 239.115 89.8419 239.27 89.5673C239.428 89.2927 239.506 89.0038 239.506 88.7008V87.6781C239.459 87.7349 239.355 87.787 239.194 87.8343C239.036 87.8785 238.853 87.918 238.645 87.9527C238.44 87.9843 238.239 88.0127 238.043 88.0379C237.851 88.06 237.695 88.079 237.575 88.0947C237.284 88.1326 237.013 88.1942 236.76 88.2794C236.511 88.3615 236.309 88.4862 236.154 88.6534C236.003 88.8176 235.927 89.0417 235.927 89.3258C235.927 89.7141 236.071 90.0076 236.358 90.2065C236.648 90.4022 237.016 90.5 237.461 90.5ZM242.663 91.3334V84.0606H243.743V85.197H243.838C243.989 84.8088 244.234 84.5073 244.572 84.2927C244.909 84.0749 245.315 83.966 245.788 83.966C246.268 83.966 246.667 84.0749 246.986 84.2927C247.308 84.5073 247.559 84.8088 247.739 85.197H247.815C248.001 84.8214 248.28 84.5231 248.653 84.3021C249.025 84.078 249.472 83.966 249.993 83.966C250.643 83.966 251.175 84.1695 251.589 84.5767C252.002 84.9808 252.209 85.6105 252.209 86.4659V91.3334H251.091V86.4659C251.091 85.9293 250.945 85.5458 250.651 85.3154C250.358 85.085 250.012 84.9697 249.614 84.9697C249.103 84.9697 248.707 85.1244 248.426 85.4338C248.145 85.7399 248.004 86.1282 248.004 86.5985V91.3334H246.868V86.3523C246.868 85.9388 246.734 85.6058 246.465 85.3533C246.197 85.0976 245.852 84.9697 245.429 84.9697C245.138 84.9697 244.867 85.0471 244.614 85.2017C244.365 85.3564 244.163 85.5711 244.008 85.8457C243.857 86.1171 243.781 86.4312 243.781 86.7879V91.3334H242.663ZM257.301 91.4849C256.6 91.4849 255.996 91.3302 255.488 91.0209C254.983 90.7084 254.593 90.2728 254.318 89.7141C254.047 89.1522 253.911 88.4988 253.911 87.7538C253.911 87.0089 254.047 86.3523 254.318 85.7841C254.593 85.2128 254.975 84.7677 255.464 84.4489C255.956 84.1269 256.531 83.966 257.188 83.966C257.566 83.966 257.94 84.0291 258.31 84.1553C258.679 84.2816 259.015 84.4868 259.318 84.7709C259.621 85.0518 259.863 85.4243 260.043 85.8883C260.223 86.3523 260.313 86.9237 260.313 87.6023V88.0758H254.706V87.1099H259.176C259.176 86.6995 259.094 86.3334 258.93 86.0114C258.769 85.6894 258.539 85.4353 258.239 85.2491C257.942 85.0629 257.592 84.9697 257.188 84.9697C256.742 84.9697 256.357 85.0802 256.032 85.3012C255.71 85.519 255.462 85.8031 255.289 86.1534C255.115 86.5038 255.028 86.8795 255.028 87.2803V87.9243C255.028 88.4735 255.123 88.9391 255.313 89.3211C255.505 89.6999 255.772 89.9887 256.113 90.1875C256.454 90.3832 256.85 90.4811 257.301 90.4811C257.595 90.4811 257.86 90.4401 258.097 90.358C258.337 90.2728 258.543 90.1465 258.717 89.9792C258.891 89.8088 259.025 89.5973 259.119 89.3447L260.199 89.6478C260.085 90.0139 259.894 90.3359 259.626 90.6137C259.358 90.8883 259.026 91.1029 258.632 91.2576C258.237 91.4091 257.794 91.4849 257.301 91.4849ZM263.66 91.3334L261.444 84.0606H262.618L264.19 89.6288H264.266L265.819 84.0606H267.012L268.546 89.6099H268.622L270.194 84.0606H271.368L269.153 91.3334H268.054L266.463 85.7463H266.349L264.759 91.3334H263.66ZM275.553 91.4849C274.896 91.4849 274.32 91.3286 273.825 91.0161C273.332 90.7036 272.947 90.2665 272.669 89.7046C272.395 89.1427 272.257 88.4862 272.257 87.7349C272.257 86.9773 272.395 86.316 272.669 85.751C272.947 85.186 273.332 84.7472 273.825 84.4347C274.32 84.1222 274.896 83.966 275.553 83.966C276.209 83.966 276.784 84.1222 277.276 84.4347C277.772 84.7472 278.157 85.186 278.432 85.751C278.709 86.316 278.848 86.9773 278.848 87.7349C278.848 88.4862 278.709 89.1427 278.432 89.7046C278.157 90.2665 277.772 90.7036 277.276 91.0161C276.784 91.3286 276.209 91.4849 275.553 91.4849ZM275.553 90.4811C276.052 90.4811 276.462 90.3533 276.784 90.0976C277.106 89.8419 277.344 89.5057 277.499 89.0891C277.654 88.6724 277.731 88.221 277.731 87.7349C277.731 87.2488 277.654 86.7958 277.499 86.376C277.344 85.9562 277.106 85.6168 276.784 85.358C276.462 85.0992 276.052 84.9697 275.553 84.9697C275.054 84.9697 274.644 85.0992 274.322 85.358C274 85.6168 273.761 85.9562 273.607 86.376C273.452 86.7958 273.375 87.2488 273.375 87.7349C273.375 88.221 273.452 88.6724 273.607 89.0891C273.761 89.5057 274 89.8419 274.322 90.0976C274.644 90.3533 275.054 90.4811 275.553 90.4811ZM280.554 91.3334V84.0606H281.634V85.1591H281.709C281.842 84.7993 282.082 84.5073 282.429 84.2832C282.776 84.0591 283.168 83.947 283.603 83.947C283.685 83.947 283.788 83.9486 283.911 83.9517C284.034 83.9549 284.127 83.9596 284.19 83.966V85.1023C284.152 85.0928 284.066 85.0786 283.93 85.0597C283.797 85.0376 283.657 85.0266 283.509 85.0266C283.155 85.0266 282.839 85.1007 282.562 85.2491C282.287 85.3943 282.069 85.5963 281.908 85.8552C281.75 86.1108 281.671 86.4028 281.671 86.7311V91.3334H280.554ZM286.557 88.6819L286.538 87.2993H286.765L289.947 84.0606H291.329L287.939 87.4887H287.844L286.557 88.6819ZM285.515 91.3334V81.6364H286.632V91.3334H285.515ZM290.136 91.3334L287.295 87.7349L288.091 86.9584L291.557 91.3334H290.136Z"
                  fill="url(#paint4_linear_29_39)"/>
            <rect x="108.333" y="75.5555" width="183.333" height="2.77778" fill="url(#paint5_linear_29_39)"/>
        </g>
    </g>
    <defs>
        <filter id="filter0_d_29_39" x="16" y="22" width="69.21" height="56.55" filterUnits="userSpaceOnUse"
                color-interpolation-filters="sRGB">
            <feFlood flood-opacity="0" result="BackgroundImageFix"/>
            <feColorMatrix in="SourceAlpha" type="matrix" values="0 0 0 0 0 0 0 0 0 0 0 0 0 0 0 0 0 0 127 0"
                           result="hardAlpha"/>
            <feOffset dx="1" dy="1"/>
            <feGaussianBlur stdDeviation="1.5"/>
            <feComposite in2="hardAlpha" operator="out"/>
            <feColorMatrix type="matrix" values="0 0 0 0 0 0 0 0 0 0 0 0 0 0 0 0 0 0 0.5 0"/>
            <feBlend mode="normal" in2="BackgroundImageFix" result="effect1_dropShadow_29_39"/>
            <feBlend mode="normal" in="SourceGraphic" in2="effect1_dropShadow_29_39" result="shape"/>
        </filter>
        <filter id="filter1_d_29_39" x="108.333" y="11.6504" width="187.765" height="86.5618"
                filterUnits="userSpaceOnUse" color-interpolation-filters="sRGB">
            <feFlood flood-opacity="0" result="BackgroundImageFix"/>
            <feColorMatrix in="SourceAlpha" type="matrix" values="0 0 0 0 0 0 0 0 0 0 0 0 0 0 0 0 0 0 127 0"
                           result="hardAlpha"/>
            <feOffset dx="2" dy="2"/>
            <feGaussianBlur stdDeviation="1"/>
            <feComposite in2="hardAlpha" operator="out"/>
            <feColorMatrix type="matrix" values="0 0 0 0 0 0 0 0 0 0 0 0 0 0 0 0 0 0 0.25 0"/>
            <feBlend mode="normal" in2="BackgroundImageFix" result="effect1_dropShadow_29_39"/>
            <feBlend mode="normal" in="SourceGraphic" in2="effect1_dropShadow_29_39" result="shape"/>
        </filter>
        <linearGradient id="paint0_linear_29_39" x1="310" y1="5.96046e-06" x2="251.565" y2="181.15"
                        gradientUnits="userSpaceOnUse">
            <stop stop-color="#2B2A32"/>
            <stop offset="1" stop-color="#1F1C29"/>
        </linearGradient>
        <linearGradient id="paint1_linear_29_39" x1="18" y1="27.7179" x2="81.21" y2="27.7179"
                        gradientUnits="userSpaceOnUse">
            <stop stop-color="#4568DC"/>
            <stop offset="0.9999" stop-color="#AF6AB3"/>
        </linearGradient>
        <linearGradient id="paint2_linear_29_39" x1="18" y1="54.1018" x2="81.21" y2="54.1018"
                        gradientUnits="userSpaceOnUse">
            <stop stop-color="#4568DC"/>
            <stop offset="0.9999" stop-color="#AF6AB3"/>
        </linearGradient>
        <linearGradient id="paint3_linear_29_39" x1="100" y1="43.6111" x2="302.778" y2="43.6111"
                        gradientUnits="userSpaceOnUse">
            <stop stop-color="#4568DC"/>
            <stop offset="0.9999" stop-color="#AF6AB3"/>
        </linearGradient>
        <linearGradient id="paint4_linear_29_39" x1="108.333" y1="86.6667" x2="294.444" y2="86.6667"
                        gradientUnits="userSpaceOnUse">
            <stop stop-color="#4568DC"/>
            <stop offset="0.9999" stop-color="#AF6AB3"/>
        </linearGradient>
        <linearGradient id="paint5_linear_29_39" x1="108.333" y1="76.9444" x2="291.667" y2="76.9444"
                        gradientUnits="userSpaceOnUse">
            <stop stop-color="#4568DC"/>
            <stop offset="0.9999" stop-color="#AF6AB3"/>
        </linearGradient>
        <clipPath id="clip0_29_39">
            <rect width="310" height="100" rx="20" fill="white"/>
        </clipPath>
    </defs>
</svg>
